<svg width="36" height="36" viewBox="0 0 36 36" fill="none" xmlns="http://www.w3.org/2000/svg">
<mask id="mask0_160_56" style="mask-type:alpha" maskUnits="userSpaceOnUse" x="2" y="2" width="32" height="32">
<rect x="2" y="2" width="32" height="32" fill="#D9D9D9"/>
</mask>
<g mask="url(#mask0_160_56)">
<path d="M8.66667 27.3334H10.5333L22.0333 15.8334L20.1667 13.9667L8.66667 25.4667V27.3334ZM27.7333 13.9L22.0667 8.30002L23.9333 6.43335C24.4444 5.92224 25.0722 5.66669 25.8167 5.66669C26.5611 5.66669 27.1889 5.92224 27.7 6.43335L29.5667 8.30002C30.0778 8.81113 30.3444 9.4278 30.3667 10.15C30.3889 10.8722 30.1444 11.4889 29.6333 12L27.7333 13.9ZM25.8 15.8667L11.6667 30H6V24.3334L20.1333 10.2L25.8 15.8667Z" fill="white"/>
</g>
</svg>
