<svg width="25" height="25" viewBox="0 0 25 25" fill="none" xmlns="http://www.w3.org/2000/svg">
<mask id="mask0_369_478" style="mask-type:alpha" maskUnits="userSpaceOnUse" x="0" y="0" width="25" height="25">
<rect x="0.0847168" y="0.129883" width="24" height="24" fill="#D9D9D9"/>
</mask>
<g mask="url(#mask0_369_478)">
<path d="M3.08472 11.1299V3.12988H11.0847V11.1299H3.08472ZM5.08472 9.12988H9.08472V5.12988H5.08472V9.12988ZM3.08472 21.1299V13.1299H11.0847V21.1299H3.08472ZM5.08472 19.1299H9.08472V15.1299H5.08472V19.1299ZM13.0847 11.1299V3.12988H21.0847V11.1299H13.0847ZM15.0847 9.12988H19.0847V5.12988H15.0847V9.12988ZM19.0847 21.1299V19.1299H21.0847V21.1299H19.0847ZM13.0847 15.1299V13.1299H15.0847V15.1299H13.0847ZM15.0847 17.1299V15.1299H17.0847V17.1299H15.0847ZM13.0847 19.1299V17.1299H15.0847V19.1299H13.0847ZM15.0847 21.1299V19.1299H17.0847V21.1299H15.0847ZM17.0847 19.1299V17.1299H19.0847V19.1299H17.0847ZM17.0847 15.1299V13.1299H19.0847V15.1299H17.0847ZM19.0847 17.1299V15.1299H21.0847V17.1299H19.0847Z" fill="black"/>
</g>
</svg>
