<svg width="25" height="25" viewBox="0 0 25 25" fill="none" xmlns="http://www.w3.org/2000/svg">
<mask id="mask0_334_197" style="mask-type:alpha" maskUnits="userSpaceOnUse" x="0" y="0" width="25" height="25">
<rect x="0.199951" y="0.500122" width="24" height="24" fill="#D9D9D9"/>
</mask>
<g mask="url(#mask0_334_197)">
<path d="M12.2 17.5001C12.4833 17.5001 12.7208 17.4043 12.9125 17.2126C13.1041 17.021 13.2 16.7835 13.2 16.5001C13.2 16.2168 13.1041 15.9793 12.9125 15.7876C12.7208 15.596 12.4833 15.5001 12.2 15.5001C11.9166 15.5001 11.6791 15.596 11.4875 15.7876C11.2958 15.9793 11.2 16.2168 11.2 16.5001C11.2 16.7835 11.2958 17.021 11.4875 17.2126C11.6791 17.4043 11.9166 17.5001 12.2 17.5001ZM11.2 13.5001H13.2V7.50012H11.2V13.5001ZM12.2 22.5001C10.8166 22.5001 9.51662 22.2376 8.29995 21.7126C7.08328 21.1876 6.02495 20.4751 5.12495 19.5751C4.22495 18.6751 3.51245 17.6168 2.98745 16.4001C2.46245 15.1835 2.19995 13.8835 2.19995 12.5001C2.19995 11.1168 2.46245 9.81679 2.98745 8.60012C3.51245 7.38346 4.22495 6.32512 5.12495 5.42512C6.02495 4.52512 7.08328 3.81262 8.29995 3.28762C9.51662 2.76262 10.8166 2.50012 12.2 2.50012C13.5833 2.50012 14.8833 2.76262 16.1 3.28762C17.3166 3.81262 18.375 4.52512 19.275 5.42512C20.175 6.32512 20.8875 7.38346 21.4125 8.60012C21.9375 9.81679 22.2 11.1168 22.2 12.5001C22.2 13.8835 21.9375 15.1835 21.4125 16.4001C20.8875 17.6168 20.175 18.6751 19.275 19.5751C18.375 20.4751 17.3166 21.1876 16.1 21.7126C14.8833 22.2376 13.5833 22.5001 12.2 22.5001ZM12.2 20.5001C14.4333 20.5001 16.325 19.7251 17.875 18.1751C19.425 16.6251 20.2 14.7335 20.2 12.5001C20.2 10.2668 19.425 8.37512 17.875 6.82512C16.325 5.27512 14.4333 4.50012 12.2 4.50012C9.96662 4.50012 8.07495 5.27512 6.52495 6.82512C4.97495 8.37512 4.19995 10.2668 4.19995 12.5001C4.19995 14.7335 4.97495 16.6251 6.52495 18.1751C8.07495 19.7251 9.96662 20.5001 12.2 20.5001Z" fill="#CC3300"/>
</g>
</svg>
